<svg xmlns="http://www.w3.org/2000/svg" version="1.1" xmlns:xlink="http://www.w3.org/1999/xlink" xmlns:svgjs="http://svgjs.dev/svgjs" width="100%" height="100%" viewBox="0 0 1000 600"><rect width="1000" height="600" x="0" y="0" fill="#333333"/><g><rect width="333.3333333333333" height="333.3333333333333" rx="13.333333333333334" ry="13.333333333333334" y="221.5694601978734" fill="#21c483" transform="matrix(0.6270465891329274,0,0,0.6270465891329273,0,56.55785761963082)" x="199.3472290039063"/><path d="M283.4097315564089 463.2361303426977L263.469255969638 463.2361303426977L263.469255969638 313.2361348840039L283.4097315564089 313.2361348840039L313.20139732112165 404.7242273522628L342.9930630858344 313.2361348840039L362.9037767687444 313.2361348840039L362.9037767687444 463.2361303426977L342.9930630858344 463.2361303426977L342.9930630858344 374.0992282794461L323.05258749906363 435.1706550019143L303.35020714317966 435.1706550019143L283.4097315564089 374.0992282794461L283.4097315564089 463.2361303426977ZM408.97520394534325 463.2361303426977L389.06449026243325 463.2361303426977L389.06449026243325 313.2361348840039L453.35020260187355 313.2361348840039Q459.54067860493075 313.2361348840039 464.0644879917802 317.7301823669925Q468.5585354747689 322.2242298499811 468.5585354747689 328.65280108392517L468.5585354747689 328.65280108392517L468.5585354747689 374.724228260524Q468.5585354747689 381.152799494468 464.0644879917802 385.6766088813175Q459.54067860493075 390.1706563643062 453.35020260187355 390.1706563643062L453.35020260187355 390.1706563643062L448.826393215024 390.1706563643062L468.5585354747689 463.2361303426977L448.826393215024 463.2361303426977L428.91567953211404 390.1706563643062L408.97520394534325 390.1706563643062L408.97520394534325 463.2361303426977ZM408.97520394534325 333.1766104707746L408.97520394534325 370.23018077753534L441.11806011506343 370.23018077753534Q444.1240124050094 370.23018077753534 446.47520281001675 367.99803798797143Q448.826393215024 365.73613329454673 448.826393215024 362.52184767757467L448.826393215024 362.52184767757467L448.826393215024 340.8849435707353Q448.826393215024 337.6706579537633 446.47520281001675 335.40875326033853Q444.1240124050094 333.1766104707746 441.11806011506343 333.1766104707746L441.11806011506343 333.1766104707746L408.97520394534325 333.1766104707746Z " fill="#ffffff" transform="matrix(0.6270465891329274,0,0,0.6270465891329273,0,56.55785761963082)"/><path d="M634.6250066757203 463.236134157395L616.0138955646092 463.236134157395L616.0138955646092 323.236134157395L634.6250066757203 323.236134157395L662.430562231276 408.6250230462839L690.2361177868315 323.236134157395L708.8194511201649 323.236134157395L708.8194511201649 463.236134157395L690.2361177868315 463.236134157395L690.2361177868315 380.04168971295053L671.6250066757203 437.04168971295053L653.2361177868315 437.04168971295053L634.6250066757203 380.04168971295053L634.6250066757203 463.236134157395ZM785.6250066757204 463.236134157395L743.8194511201648 463.236134157395Q737.8194511201648 463.236134157395 733.5138955646094 458.93057860183944Q729.2361177868315 454.6250230462839 729.2361177868315 448.6250230462839L729.2361177868315 448.6250230462839L729.2361177868315 377.6250230462839Q729.2361177868315 371.6250230462839 733.5138955646094 367.43057860183944Q737.8194511201648 363.236134157395 743.8194511201648 363.236134157395L743.8194511201648 363.236134157395L771.0138955646094 363.236134157395Q777.2361177868315 363.236134157395 781.430562231276 367.43057860183944Q785.6250066757204 371.6250230462839 785.6250066757204 377.6250230462839L785.6250066757204 377.6250230462839L785.6250066757204 408.04168971295053Q785.6250066757204 414.04168971295053 781.430562231276 418.34724526850613Q777.2361177868315 422.6250230462839 771.0138955646094 422.6250230462839L771.0138955646094 422.6250230462839L748.0138955646094 422.6250230462839L748.0138955646094 437.236134157395Q748.0138955646094 440.236134157395 750.1250066757204 442.3472452685061Q752.2361177868315 444.43057860183944 755.430562231276 444.43057860183944L755.430562231276 444.43057860183944L781.430562231276 444.43057860183944L785.6250066757204 463.236134157395ZM748.0138955646094 389.236134157395L748.0138955646094 403.84724526850613L759.6250066757204 403.84724526850613Q762.6250066757204 403.84724526850613 764.7361177868315 401.736134157395Q766.8194511201648 399.6250230462839 766.8194511201648 396.6250230462839L766.8194511201648 396.6250230462839L766.8194511201648 389.236134157395Q766.8194511201648 386.236134157395 764.7361177868315 384.1250230462839Q762.6250066757204 382.04168971295053 759.6250066757204 382.04168971295053L759.6250066757204 382.04168971295053L755.430562231276 382.04168971295053Q752.2361177868315 382.04168971295053 750.1250066757204 384.1250230462839Q748.0138955646094 386.236134157395 748.0138955646094 389.236134157395L748.0138955646094 389.236134157395ZM852.0138955646094 463.236134157395L810.2361177868315 463.236134157395Q804.2361177868315 463.236134157395 799.930562231276 458.93057860183944Q795.6250066757204 454.6250230462839 795.6250066757204 448.6250230462839L795.6250066757204 448.6250230462839L795.6250066757204 377.6250230462839Q795.6250066757204 371.6250230462839 799.930562231276 367.43057860183944Q804.2361177868315 363.236134157395 810.2361177868315 363.236134157395L810.2361177868315 363.236134157395L837.430562231276 363.236134157395Q843.6250066757204 363.236134157395 847.8194511201648 367.43057860183944Q852.0138955646094 371.6250230462839 852.0138955646094 377.6250230462839L852.0138955646094 377.6250230462839L852.0138955646094 408.04168971295053Q852.0138955646094 414.04168971295053 847.8194511201648 418.34724526850613Q843.6250066757204 422.6250230462839 837.430562231276 422.6250230462839L837.430562231276 422.6250230462839L814.430562231276 422.6250230462839L814.430562231276 437.236134157395Q814.430562231276 440.236134157395 816.5138955646094 442.3472452685061Q818.6250066757204 444.43057860183944 821.8194511201648 444.43057860183944L821.8194511201648 444.43057860183944L847.8194511201648 444.43057860183944L852.0138955646094 463.236134157395ZM814.430562231276 389.236134157395L814.430562231276 403.84724526850613L826.0138955646094 403.84724526850613Q829.0138955646094 403.84724526850613 831.1250066757204 401.736134157395Q833.2361177868315 399.6250230462839 833.2361177868315 396.6250230462839L833.2361177868315 396.6250230462839L833.2361177868315 389.236134157395Q833.2361177868315 386.236134157395 831.1250066757204 384.1250230462839Q829.0138955646094 382.04168971295053 826.0138955646094 382.04168971295053L826.0138955646094 382.04168971295053L821.8194511201648 382.04168971295053Q818.6250066757204 382.04168971295053 816.5138955646094 384.1250230462839Q814.430562231276 386.236134157395 814.430562231276 389.236134157395L814.430562231276 389.236134157395ZM886.8194511201648 463.236134157395L868.0138955646094 463.236134157395L868.0138955646094 317.62502304628384L886.8194511201648 313.43057860183944L886.8194511201648 363.236134157395L910.6250066757204 363.236134157395L906.2361177868315 382.04168971295053L886.8194511201648 382.04168971295053L886.8194511201648 463.236134157395ZM1012.4305622312759 463.236134157395L967.0138955646094 463.236134157395Q961.0138955646094 463.236134157395 956.8194511201648 459.04168971295053Q952.6250066757204 454.8472452685061 952.6250066757204 448.8472452685061L952.6250066757204 448.8472452685061L952.6250066757204 417.8472452685061L971.2361177868315 422.04168971295053L971.2361177868315 437.43057860183944Q971.2361177868315 440.43057860183944 973.3194511201648 442.54168971295053Q975.430562231276 444.6250230462839 978.2361177868315 444.6250230462839L978.2361177868315 444.6250230462839L1001.0138955646094 444.6250230462839Q1004.0138955646092 444.6250230462839 1006.1250066757204 442.54168971295053Q1008.2361177868315 440.43057860183944 1008.2361177868315 437.43057860183944L1008.2361177868315 437.43057860183944L1008.2361177868315 402.236134157395Q1008.2361177868315 399.236134157395 1006.1250066757204 397.1250230462839Q1004.0138955646092 395.04168971295053 1001.0138955646094 395.04168971295053L1001.0138955646094 395.04168971295053L967.0138955646094 395.04168971295053Q961.0138955646094 395.04168971295053 956.8194511201648 390.8472452685061Q952.6250066757204 386.6250230462839 952.6250066757204 380.6250230462839L952.6250066757204 380.6250230462839L952.6250066757204 337.62502304628384Q952.6250066757204 331.62502304628384 956.8194511201648 327.43057860183944Q961.0138955646094 323.236134157395 967.0138955646094 323.236134157395L967.0138955646094 323.236134157395L1012.4305622312759 323.236134157395Q1018.430562231276 323.236134157395 1022.6250066757204 327.43057860183944Q1026.8194511201646 331.62502304628384 1026.8194511201646 337.62502304628384L1026.8194511201646 337.62502304628384L1026.8194511201646 359.236134157395L1008.2361177868315 354.8472452685061L1008.2361177868315 349.04168971295053Q1008.2361177868315 346.04168971295053 1006.1250066757204 343.9305786018394Q1004.0138955646092 341.84724526850613 1001.0138955646094 341.84724526850613L1001.0138955646094 341.84724526850613L978.2361177868315 341.84724526850613Q975.430562231276 341.84724526850613 973.3194511201648 343.9305786018394Q971.2361177868315 346.04168971295053 971.2361177868315 349.04168971295053L971.2361177868315 349.04168971295053L971.2361177868315 369.236134157395Q971.2361177868315 372.236134157395 973.3194511201648 374.3472452685061Q975.430562231276 376.43057860183944 978.2361177868315 376.43057860183944L978.2361177868315 376.43057860183944L1012.4305622312759 376.43057860183944Q1018.430562231276 376.43057860183944 1022.6250066757204 380.6250230462839Q1026.8194511201646 384.8472452685061 1026.8194511201646 390.8472452685061L1026.8194511201646 390.8472452685061L1026.8194511201646 448.8472452685061Q1026.8194511201646 454.8472452685061 1022.6250066757204 459.04168971295053Q1018.430562231276 463.236134157395 1012.4305622312759 463.236134157395L1012.4305622312759 463.236134157395ZM1093.2361177868315 463.236134157395L1051.4305622312759 463.236134157395Q1045.4305622312759 463.236134157395 1041.1250066757202 459.04168971295053Q1036.8194511201646 454.8472452685061 1036.8194511201646 448.6250230462839L1036.8194511201646 448.6250230462839L1036.8194511201646 418.43057860183944Q1036.8194511201646 412.43057860183944 1041.1250066757202 408.12502304628384Q1045.4305622312759 403.84724526850613 1051.4305622312759 403.84724526850613L1051.4305622312759 403.84724526850613L1067.0138955646094 403.84724526850613Q1070.2361177868315 403.84724526850613 1072.3194511201646 401.736134157395Q1074.4305622312759 399.6250230462839 1074.4305622312759 396.6250230462839L1074.4305622312759 396.6250230462839L1074.4305622312759 389.236134157395Q1074.4305622312759 386.236134157395 1072.3194511201646 384.1250230462839Q1070.2361177868315 382.04168971295053 1067.0138955646094 382.04168971295053L1067.0138955646094 382.04168971295053L1045.4305622312759 382.04168971295053L1049.6250066757202 363.236134157395L1078.6250066757202 363.236134157395Q1084.6250066757202 363.236134157395 1088.9305622312759 367.54168971295053Q1093.2361177868315 371.8472452685061 1093.2361177868315 377.8472452685061L1093.2361177868315 377.8472452685061L1093.2361177868315 463.236134157395ZM1062.8194511201646 444.43057860183944L1062.8194511201646 444.43057860183944L1074.4305622312759 444.43057860183944L1074.4305622312759 422.6250230462839L1062.8194511201646 422.6250230462839Q1059.8194511201646 422.6250230462839 1057.7361177868315 424.736134157395Q1055.6250066757202 426.8472452685061 1055.6250066757202 429.84724526850613L1055.6250066757202 429.84724526850613L1055.6250066757202 437.236134157395Q1055.6250066757202 440.236134157395 1057.7361177868315 442.3472452685061Q1059.8194511201646 444.43057860183944 1062.8194511201646 444.43057860183944ZM1147.0138955646094 463.236134157395L1105.2361177868315 463.236134157395L1105.2361177868315 317.43057860183944L1124.0138955646094 313.236134157395L1124.0138955646094 363.236134157395L1147.0138955646094 363.236134157395Q1153.0138955646094 363.236134157395 1157.319451120165 367.43057860183944Q1161.6250066757202 371.6250230462839 1161.6250066757202 377.8472452685061L1161.6250066757202 377.8472452685061L1161.6250066757202 448.6250230462839Q1161.6250066757202 454.6250230462839 1157.319451120165 458.93057860183944Q1153.0138955646094 463.236134157395 1147.0138955646094 463.236134157395L1147.0138955646094 463.236134157395ZM1124.0138955646094 382.04168971295053L1124.0138955646094 444.43057860183944L1135.4305622312759 444.43057860183944Q1138.4305622312759 444.43057860183944 1140.6250066757202 442.3472452685061Q1142.819451120165 440.236134157395 1142.819451120165 437.236134157395L1142.819451120165 437.236134157395L1142.819451120165 389.236134157395Q1142.819451120165 386.236134157395 1140.6250066757202 384.1250230462839Q1138.4305622312759 382.04168971295053 1135.4305622312759 382.04168971295053L1135.4305622312759 382.04168971295053L1124.0138955646094 382.04168971295053ZM1190.4305622312759 463.236134157395L1171.6250066757202 463.236134157395L1171.6250066757202 317.43057860183944L1190.4305622312759 313.236134157395L1190.4305622312759 363.236134157395L1213.4305622312759 363.236134157395Q1219.4305622312759 363.236134157395 1223.6250066757202 367.54168971295053Q1227.8194511201646 371.8472452685061 1227.8194511201646 377.8472452685061L1227.8194511201646 377.8472452685061L1227.8194511201646 463.236134157395L1209.0138955646094 463.236134157395L1209.0138955646094 389.236134157395Q1209.0138955646094 386.236134157395 1206.9305622312759 384.1250230462839Q1204.819451120165 382.04168971295053 1201.819451120165 382.04168971295053L1201.819451120165 382.04168971295053L1190.4305622312759 382.04168971295053L1190.4305622312759 463.236134157395ZM1294.2361177868315 463.236134157395L1252.4305622312759 463.236134157395Q1246.4305622312759 463.236134157395 1242.1250066757202 459.04168971295053Q1237.8194511201646 454.8472452685061 1237.8194511201646 448.6250230462839L1237.8194511201646 448.6250230462839L1237.8194511201646 418.43057860183944Q1237.8194511201646 412.43057860183944 1242.1250066757202 408.12502304628384Q1246.4305622312759 403.84724526850613 1252.4305622312759 403.84724526850613L1252.4305622312759 403.84724526850613L1268.013895564609 403.84724526850613Q1271.2361177868315 403.84724526850613 1273.3194511201646 401.736134157395Q1275.4305622312759 399.6250230462839 1275.4305622312759 396.6250230462839L1275.4305622312759 396.6250230462839L1275.4305622312759 389.236134157395Q1275.4305622312759 386.236134157395 1273.3194511201646 384.1250230462839Q1271.2361177868315 382.04168971295053 1268.013895564609 382.04168971295053L1268.013895564609 382.04168971295053L1246.4305622312759 382.04168971295053L1250.6250066757202 363.236134157395L1279.6250066757202 363.236134157395Q1285.6250066757202 363.236134157395 1289.9305622312759 367.54168971295053Q1294.2361177868315 371.8472452685061 1294.2361177868315 377.8472452685061L1294.2361177868315 377.8472452685061L1294.2361177868315 463.236134157395ZM1263.8194511201646 444.43057860183944L1263.8194511201646 444.43057860183944L1275.4305622312759 444.43057860183944L1275.4305622312759 422.6250230462839L1263.8194511201646 422.6250230462839Q1260.8194511201646 422.6250230462839 1258.7361177868315 424.736134157395Q1256.6250066757202 426.8472452685061 1256.6250066757202 429.84724526850613L1256.6250066757202 429.84724526850613L1256.6250066757202 437.236134157395Q1256.6250066757202 440.236134157395 1258.7361177868315 442.3472452685061Q1260.8194511201646 444.43057860183944 1263.8194511201646 444.43057860183944ZM1323.8194511201646 463.236134157395L1305.013895564609 463.236134157395L1305.013895564609 363.236134157395L1346.8194511201646 363.236134157395Q1352.6250066757202 363.236134157395 1357.0138955646094 367.43057860183944Q1361.4305622312759 371.6250230462839 1361.4305622312759 377.6250230462839L1361.4305622312759 377.6250230462839L1361.4305622312759 463.236134157395L1342.6250066757202 463.236134157395L1342.6250066757202 389.236134157395Q1342.6250066757202 386.04168971295053 1340.4305622312759 384.04168971295053Q1338.236117786831 382.04168971295053 1335.4305622312759 382.04168971295053L1335.4305622312759 382.04168971295053L1323.8194511201646 382.04168971295053L1323.8194511201646 463.236134157395ZM1395.013895564609 332.0416897129506L1376.2361177868315 336.43057860183944L1376.2361177868315 317.62502304628384L1395.013895564609 313.236134157395L1395.013895564609 332.0416897129506ZM1395.4305622312759 463.236134157395L1376.6250066757202 463.236134157395L1376.6250066757202 367.62502304628384L1395.4305622312759 363.236134157395L1395.4305622312759 463.236134157395Z " fill="#ffffff" transform="matrix(0.6270465891329274,0,0,0.6270465891329273,0,56.55785761963082)"/></g></svg>